<?xml version="1.0" encoding="us-ascii" standalone="no"?><svg xmlns="http://www.w3.org/2000/svg" xmlns:xlink="http://www.w3.org/1999/xlink" contentStyleType="text/css" height="572px" preserveAspectRatio="none" style="width:942px;height:572px;background:#FFFFFF;" version="1.1" viewBox="0 0 942 572" width="942px" zoomAndPan="magnify"><defs/><g><!--cluster Manage Vehicles--><g id="cluster_Manage Vehicles"><path d="M305.5,6 L441.5,6 A3.75,3.75 0 0 1 444,8.5 L451,28.2969 L932.5,28.2969 A2.5,2.5 0 0 1 935,30.7969 L935,562.5 A2.5,2.5 0 0 1 932.5,565 L305.5,565 A2.5,2.5 0 0 1 303,562.5 L303,8.5 A2.5,2.5 0 0 1 305.5,6 " fill="none" style="stroke:#000000;stroke-width:1.5;"/><line style="stroke:#000000;stroke-width:1.5;" x1="303" x2="451" y1="28.2969" y2="28.2969"/><text fill="#000000" font-family="sans-serif" font-size="14" font-weight="bold" lengthAdjust="spacing" textLength="135" x="307" y="20.9951">Manage Vehicles</text></g><g id="elem_UC1"><ellipse cx="448.2544" cy="440.7509" fill="#F1F1F1" rx="129.2544" ry="28.2509" style="stroke:#181818;stroke-width:0.5;"/><text fill="#000000" font-family="sans-serif" font-size="14" lengthAdjust="spacing" textLength="227" x="334.7544" y="443.5976">Track Basic Vehicle Information</text></g><g id="elem_UC2"><ellipse cx="448.5673" cy="355.2135" fill="#F1F1F1" rx="99.0673" ry="22.2135" style="stroke:#181818;stroke-width:0.5;"/><text fill="#000000" font-family="sans-serif" font-size="14" lengthAdjust="spacing" textLength="162" x="367.5673" y="358.0601">Manage Vehicle Status</text></g><g id="elem_UC3"><ellipse cx="448.5271" cy="180.8054" fill="#F1F1F1" rx="117.0271" ry="25.8054" style="stroke:#181818;stroke-width:0.5;"/><text fill="#000000" font-family="sans-serif" font-size="14" lengthAdjust="spacing" textLength="201" x="348.0271" y="183.6521">Manage Vehicle Information</text></g><g id="elem_UC4"><ellipse cx="448.5612" cy="102.2122" fill="#F1F1F1" rx="76.5612" ry="17.7122" style="stroke:#181818;stroke-width:0.5;"/><text fill="#000000" font-family="sans-serif" font-size="14" lengthAdjust="spacing" textLength="110" x="390.5612" y="105.9598">Manage Drivers</text></g><g id="elem_UC5"><ellipse cx="448.6147" cy="527.1229" fill="#F1F1F1" rx="98.6147" ry="22.1229" style="stroke:#181818;stroke-width:0.5;"/><text fill="#000000" font-family="sans-serif" font-size="14" lengthAdjust="spacing" textLength="161" x="368.1147" y="529.9696">Schedule Maintenance</text></g><g id="elem_UC6"><ellipse cx="869.7843" cy="222.0236" fill="#F1F1F1" rx="31.2843" ry="14.5236" style="stroke:#181818;stroke-width:0.5;"/><text fill="#000000" font-family="sans-serif" font-size="14" lengthAdjust="spacing" textLength="28" x="855.7843" y="224.8703">Add</text></g><g id="elem_UC7"><ellipse cx="869.8687" cy="350.18" fill="#F1F1F1" rx="48.8687" ry="14.68" style="stroke:#181818;stroke-width:0.5;"/><text fill="#000000" font-family="sans-serif" font-size="14" lengthAdjust="spacing" textLength="52" x="840.8687" y="353.9275">Update</text></g><g id="elem_UC8"><ellipse cx="870.1299" cy="286.1562" fill="#F1F1F1" rx="46.6299" ry="14.6562" style="stroke:#181818;stroke-width:0.5;"/><text fill="#000000" font-family="sans-serif" font-size="14" lengthAdjust="spacing" textLength="49" x="842.6299" y="289.9038">Delete</text></g><g id="elem_UC9"><ellipse cx="448.4752" cy="269.995" fill="#F1F1F1" rx="125.4752" ry="27.495" style="stroke:#181818;stroke-width:0.5;"/><text fill="#000000" font-family="sans-serif" font-size="14" lengthAdjust="spacing" textLength="219" x="338.9752" y="272.8417">Monitor Vehicle-Related Costs</text></g><!--entity Fleet--><g id="elem_Fleet"><ellipse cx="72" cy="151.5" fill="#F1F1F1" rx="8" ry="8" style="stroke:#181818;stroke-width:0.5;"/><path d="M72,159.5 L72,186.5 M59,167.5 L85,167.5 M72,186.5 L59,201.5 M72,186.5 L85,201.5 " fill="none" style="stroke:#181818;stroke-width:0.5;"/><text fill="#000000" font-family="sans-serif" font-size="14" lengthAdjust="spacing" textLength="102" x="21" y="215.9951">Fleet Manager</text></g><!--entity Driver--><g id="elem_Driver"><ellipse cx="72" cy="316.5" fill="#F1F1F1" rx="8" ry="8" style="stroke:#181818;stroke-width:0.5;"/><path d="M72,324.5 L72,351.5 M59,332.5 L85,332.5 M72,351.5 L59,366.5 M72,351.5 L85,366.5 " fill="none" style="stroke:#181818;stroke-width:0.5;"/><text fill="#000000" font-family="sans-serif" font-size="14" lengthAdjust="spacing" textLength="44" x="50" y="380.9951">Driver</text></g><!--entity Maintenance--><g id="elem_Maintenance"><ellipse cx="72" cy="432.5" fill="#F1F1F1" rx="8" ry="8" style="stroke:#181818;stroke-width:0.5;"/><path d="M72,440.5 L72,467.5 M59,448.5 L85,448.5 M72,467.5 L59,482.5 M72,467.5 L85,482.5 " fill="none" style="stroke:#181818;stroke-width:0.5;"/><text fill="#000000" font-family="sans-serif" font-size="14" lengthAdjust="spacing" textLength="132" x="6" y="496.9951">Maintenance Staff</text></g><!--link Fleet to UC2--><g id="link_Fleet_UC2"><path d="M123.236,217.08 C166.834,246.952 232.59,288.629 295,315 C320.087,325.6 342.8842,332.5678 368.5052,338.8798 " fill="none" id="Fleet-to-UC2" style="stroke:#181818;stroke-width:1.0;"/><polygon fill="#181818" points="374.331,340.315,366.5491,334.2783,369.4762,339.119,364.6355,342.046,374.331,340.315" style="stroke:#181818;stroke-width:1.0;"/></g><!--link Fleet to UC3--><g id="link_Fleet_UC3"><path d="M123.118,181 C176.036,181 255.298,181 325.13,181 " fill="none" id="Fleet-to-UC3" style="stroke:#181818;stroke-width:1.0;"/><polygon fill="#181818" points="331.13,181,322.13,177,326.13,181,322.13,185,331.13,181" style="stroke:#181818;stroke-width:1.0;"/></g><!--link Fleet to UC4--><g id="link_Fleet_UC4"><path d="M123.118,170.428 C192.877,155.712 312.9752,130.3774 385.7062,115.0354 " fill="none" id="Fleet-to-UC4" style="stroke:#181818;stroke-width:1.0;"/><polygon fill="#181818" points="391.577,113.797,381.9452,111.7407,386.6847,114.829,383.5964,119.5685,391.577,113.797" style="stroke:#181818;stroke-width:1.0;"/></g><!--link Driver to UC1--><g id="link_Driver_UC1"><path d="M94.2078,351.38 C144.883,364.235 269.4632,395.8367 356.8602,418.0067 " fill="none" id="Driver-to-UC1" style="stroke:#181818;stroke-width:1.0;"/><polygon fill="#181818" points="362.676,419.482,354.9358,413.3919,357.8295,418.2526,352.9688,421.1463,362.676,419.482" style="stroke:#181818;stroke-width:1.0;"/></g><!--link Driver to UC9--><g id="link_Driver_UC9"><path d="M94.2078,341.696 C143.567,331.679 262.6839,307.5063 349.9059,289.8053 " fill="none" id="Driver-to-UC9" style="stroke:#181818;stroke-width:1.0;"/><polygon fill="#181818" points="355.786,288.612,346.1702,286.4819,350.8859,289.6064,347.7613,294.3221,355.786,288.612" style="stroke:#181818;stroke-width:1.0;"/></g><!--link Maintenance to UC5--><g id="link_Maintenance_UC5"><path d="M138.233,473.322 C202.779,484.525 295.6734,500.6481 364.1624,512.5354 " fill="none" id="Maintenance-to-UC5" style="stroke:#181818;stroke-width:1.0;"/><polygon fill="#181818" points="370.074,513.5615,361.8906,508.0813,365.1477,512.7065,360.5225,515.9635,370.074,513.5615" style="stroke:#181818;stroke-width:1.0;"/></g><!--link Maintenance to UC2--><g id="link_Maintenance_UC2"><path d="M138.385,441.58 C182.505,427.971 242.109,409.912 295,395 C323.583,386.941 349.5237,380.0326 376.6187,373.0136 " fill="none" id="Maintenance-to-UC2" style="stroke:#181818;stroke-width:1.0;"/><polygon fill="#181818" points="382.427,371.509,372.7115,369.8938,377.5868,372.7629,374.7177,377.6381,382.427,371.509" style="stroke:#181818;stroke-width:1.0;"/></g><!--link UC2 to UC6--><g id="link_UC2_UC6"><path d="M505.776,373.052 C576.554,394.318 693.381,424.226 731,403 C798.379,364.982 767.529,309.912 821,254 C828.891,245.748 834.1402,241.6071 843.2292,236.1051 " fill="none" id="UC2-to-UC6" style="stroke:#181818;stroke-width:1.0;stroke-dasharray:7.0,7.0;"/><polygon fill="#181818" points="848.362,232.998,838.5914,234.2368,844.0847,235.5873,842.7342,241.0806,848.362,232.998" style="stroke:#181818;stroke-width:1.0;"/><text fill="#000000" font-family="sans-serif" font-size="13" lengthAdjust="spacing" textLength="61" x="669" y="399.0669">&#171;include&#187;</text></g><!--link UC2 to UC7--><g id="link_UC2_UC7"><path d="M523.584,369.39 C542.447,375.304 561.914,383.553 578,395 C632.898,434.067 607.853,486.6285 668,517 C692.994,529.621 705.668,528.9288 731,517 C799.905,484.5526 843.5743,404.365 859.8923,370.001 " fill="none" id="UC2-to-UC7" style="stroke:#181818;stroke-width:1.0;stroke-dasharray:7.0,7.0;"/><polygon fill="#181818" points="862.466,364.581,854.9921,370.9951,860.3212,369.0976,862.2187,374.4268,862.466,364.581" style="stroke:#181818;stroke-width:1.0;"/><text fill="#000000" font-family="sans-serif" font-size="13" lengthAdjust="spacing" textLength="61" x="669" y="513.0669">&#171;include&#187;</text></g><!--link UC2 to UC8--><g id="link_UC2_UC8"><path d="M515.808,371.18 C536.292,377.347 558.565,385.283 578,395 C644.083,428.04 666.267,495.6118 731,460 C796.467,423.985 768.779,371.441 821,318 C828.28,310.55 832.4833,307.0588 840.9443,301.7548 " fill="none" id="UC2-to-UC8" style="stroke:#181818;stroke-width:1.0;stroke-dasharray:7.0,7.0;"/><polygon fill="#181818" points="846.028,298.568,836.2779,299.9591,841.7916,301.2237,840.527,306.7374,846.028,298.568" style="stroke:#181818;stroke-width:1.0;"/><text fill="#000000" font-family="sans-serif" font-size="13" lengthAdjust="spacing" textLength="61" x="669" y="456.0669">&#171;include&#187;</text></g><!--link UC3 to UC6--><g id="link_UC3_UC6"><path d="M519.629,201.692 C562.133,213.146 617.693,226.207 668,232 C695.816,235.203 703.018,233.013 731,232 C768.208,230.654 804.9731,227.7982 832.9061,225.3392 " fill="none" id="UC3-to-UC6" style="stroke:#181818;stroke-width:1.0;stroke-dasharray:7.0,7.0;"/><polygon fill="#181818" points="838.883,224.813,829.5669,221.6176,833.9023,225.2515,830.2684,229.5868,838.883,224.813" style="stroke:#181818;stroke-width:1.0;"/><text fill="#000000" font-family="sans-serif" font-size="13" lengthAdjust="spacing" textLength="61" x="669" y="228.0669">&#171;include&#187;</text></g><!--link UC3 to UC7--><g id="link_UC3_UC7"><path d="M522.311,201.259 C540.985,207.703 560.678,215.639 578,225 C622.581,249.093 622.685,272.319 668,295 C719.278,320.666 778.2081,334.5537 820.1531,342.2317 " fill="none" id="UC3-to-UC7" style="stroke:#181818;stroke-width:1.0;stroke-dasharray:7.0,7.0;"/><polygon fill="#181818" points="826.055,343.312,817.9223,337.7569,821.1367,342.4117,816.4819,345.6261,826.055,343.312" style="stroke:#181818;stroke-width:1.0;"/><text fill="#000000" font-family="sans-serif" font-size="13" lengthAdjust="spacing" textLength="61" x="669" y="291.0669">&#171;include&#187;</text></g><!--link UC3 to UC8--><g id="link_UC3_UC8"><path d="M513.649,202.662 C534.233,209.694 557.108,217.594 578,225 C618.156,239.235 626.667,247.669 668,258 C720.981,271.242 777.516,278.1564 818.593,281.9904 " fill="none" id="UC3-to-UC8" style="stroke:#181818;stroke-width:1.0;stroke-dasharray:7.0,7.0;"/><polygon fill="#181818" points="824.567,282.548,815.9777,277.7289,819.5886,282.0833,815.2342,285.6943,824.567,282.548" style="stroke:#181818;stroke-width:1.0;"/><text fill="#000000" font-family="sans-serif" font-size="13" lengthAdjust="spacing" textLength="61" x="669" y="254.0669">&#171;include&#187;</text></g><!--link UC4 to UC6--><g id="link_UC4_UC6"><path d="M502.396,89.555 C560.56,78.45 655.749,67.986 731,97 C789.815,119.677 835.563,175.4866 855.71,203.1056 " fill="none" id="UC4-to-UC6" style="stroke:#181818;stroke-width:1.0;stroke-dasharray:7.0,7.0;"/><polygon fill="#181818" points="859.246,207.953,857.1736,198.3246,856.2994,203.9135,850.7105,203.0393,859.246,207.953" style="stroke:#181818;stroke-width:1.0;"/><text fill="#000000" font-family="sans-serif" font-size="13" lengthAdjust="spacing" textLength="61" x="669" y="79.0669">&#171;include&#187;</text></g><!--link UC4 to UC7--><g id="link_UC4_UC7"><path d="M502.05,114.536 C525.582,120.705 553.491,128.798 578,138 C586.817,141.31 723.55,205.238 731,211 C780.155,249.018 774.683,276.572 821,318 C828.764,324.944 833.0859,328.295 841.4849,333.665 " fill="none" id="UC4-to-UC7" style="stroke:#181818;stroke-width:1.0;stroke-dasharray:7.0,7.0;"/><polygon fill="#181818" points="846.54,336.897,841.112,328.6789,842.3274,334.2036,836.8027,335.419,846.54,336.897" style="stroke:#181818;stroke-width:1.0;"/><text fill="#000000" font-family="sans-serif" font-size="13" lengthAdjust="spacing" textLength="61" x="669" y="177.0669">&#171;include&#187;</text></g><!--link UC4 to UC8--><g id="link_UC4_UC8"><path d="M525.078,102.883 C584.463,106.547 667.469,118.436 731,154 C783.175,183.207 775.771,214.889 821,254 C829.03,260.944 833.5868,264.3891 842.0908,269.8331 " fill="none" id="UC4-to-UC8" style="stroke:#181818;stroke-width:1.0;stroke-dasharray:7.0,7.0;"/><polygon fill="#181818" points="847.144,273.068,841.7208,264.8468,842.933,270.3722,837.4075,271.5844,847.144,273.068" style="stroke:#181818;stroke-width:1.0;"/><text fill="#000000" font-family="sans-serif" font-size="13" lengthAdjust="spacing" textLength="61" x="669" y="125.0669">&#171;include&#187;</text></g><!--SRC=[VP7BRi8m44NtynKZzg12mgj2I2seKXTiIkb-P4_08ZYHxNHJzT_hl2gdJTXOddklZsVib1E7BaEZpXU7KXaMJcKQx5Nfd0pTq92-Mivnkde08E4oWwENbDdXWJITsOoGB5PAQ- -D-cpqUjiQ1rBQiIOj68-EagJA12f0JkBggMMsfEC7NvH8sOxm2n0BouAiTz-Dp-4pMINQ2Bxg93CtAlklkAVTD3pI1PRtky8smTcTu7zir9Ek1srvSPWuYWlBmfE2GPlSFCmzITd8Yr0-vP9SUs0PEdjE-TTPTPhAj2fVl9bX_CQfPqZSPTQrFQxX6w3-oV5uMpr2M4MTAWQe9spgQRTS0uH_Mulp7cq6u1USJCfYWO-usIWjqaBoTXiuoq5dzSVnLZI8YmPnqJ0k7iJ5WxYu7_S3]--></g></svg>