<?xml version="1.0" encoding="us-ascii" standalone="no"?><svg xmlns="http://www.w3.org/2000/svg" xmlns:xlink="http://www.w3.org/1999/xlink" contentStyleType="text/css" height="572px" preserveAspectRatio="none" style="width:775px;height:572px;background:#FFFFFF;" version="1.1" viewBox="0 0 775 572" width="775px" zoomAndPan="magnify"><defs/><g><!--cluster Manage Logistics--><g id="cluster_Manage Logistics"><path d="M183.5,6 L326.5,6 A3.75,3.75 0 0 1 329,8.5 L336,28.2969 L765.5,28.2969 A2.5,2.5 0 0 1 768,30.7969 L768,562.5 A2.5,2.5 0 0 1 765.5,565 L183.5,565 A2.5,2.5 0 0 1 181,562.5 L181,8.5 A2.5,2.5 0 0 1 183.5,6 " fill="none" style="stroke:#000000;stroke-width:1.5;"/><line style="stroke:#000000;stroke-width:1.5;" x1="181" x2="336" y1="28.2969" y2="28.2969"/><text fill="#000000" font-family="sans-serif" font-size="14" font-weight="bold" lengthAdjust="spacing" textLength="142" x="185" y="20.9951">Manage Logistics</text></g><g id="elem_UC1"><ellipse cx="298.7923" cy="314.7585" fill="#F1F1F1" rx="101.7923" ry="22.7585" style="stroke:#181818;stroke-width:0.5;"/><text fill="#000000" font-family="sans-serif" font-size="14" lengthAdjust="spacing" textLength="168" x="214.7923" y="317.6051">Customer Management</text></g><g id="elem_UC2"><ellipse cx="298.7915" cy="400.1583" fill="#F1F1F1" rx="88.7915" ry="20.1583" style="stroke:#181818;stroke-width:0.5;"/><text fill="#000000" font-family="sans-serif" font-size="14" lengthAdjust="spacing" textLength="139" x="229.2915" y="403.005">Order Management</text></g><g id="elem_UC3"><ellipse cx="299.1144" cy="171.9229" fill="#F1F1F1" rx="90.1144" ry="20.4229" style="stroke:#181818;stroke-width:0.5;"/><text fill="#000000" font-family="sans-serif" font-size="14" lengthAdjust="spacing" textLength="142" x="228.1144" y="174.7696">Plan Transportation</text></g><g id="elem_UC4"><ellipse cx="637.7843" cy="343.0236" fill="#F1F1F1" rx="31.2843" ry="14.5236" style="stroke:#181818;stroke-width:0.5;"/><text fill="#000000" font-family="sans-serif" font-size="14" lengthAdjust="spacing" textLength="28" x="623.7843" y="345.8703">Add</text></g><g id="elem_UC5"><ellipse cx="638.1299" cy="486.1562" fill="#F1F1F1" rx="46.6299" ry="14.6562" style="stroke:#181818;stroke-width:0.5;"/><text fill="#000000" font-family="sans-serif" font-size="14" lengthAdjust="spacing" textLength="49" x="610.6299" y="489.9038">Delete</text></g><g id="elem_UC6"><ellipse cx="637.8687" cy="172.18" fill="#F1F1F1" rx="48.8687" ry="14.68" style="stroke:#181818;stroke-width:0.5;"/><text fill="#000000" font-family="sans-serif" font-size="14" lengthAdjust="spacing" textLength="52" x="608.8687" y="175.9275">Update</text></g><g id="elem_UC7"><ellipse cx="638.2303" cy="66.2461" fill="#F1F1F1" rx="114.2303" ry="25.2461" style="stroke:#181818;stroke-width:0.5;"/><text fill="#000000" font-family="sans-serif" font-size="14" lengthAdjust="spacing" textLength="195" x="540.7303" y="69.0927">Track and Optimize Routes</text></g><!--entity Logistic--><g id="elem_Logistic"><ellipse cx="70" cy="220.5" fill="#F1F1F1" rx="8" ry="8" style="stroke:#181818;stroke-width:0.5;"/><path d="M70,228.5 L70,255.5 M57,236.5 L83,236.5 M70,255.5 L57,270.5 M70,255.5 L83,270.5 " fill="none" style="stroke:#181818;stroke-width:0.5;"/><text fill="#000000" font-family="sans-serif" font-size="14" lengthAdjust="spacing" textLength="128" x="6" y="284.9951">Logistics Manager</text></g><!--entity Salesperson--><g id="elem_Salesperson"><ellipse cx="70" cy="370.5" fill="#F1F1F1" rx="8" ry="8" style="stroke:#181818;stroke-width:0.5;"/><path d="M70,378.5 L70,405.5 M57,386.5 L83,386.5 M70,405.5 L57,420.5 M70,405.5 L83,420.5 " fill="none" style="stroke:#181818;stroke-width:0.5;"/><text fill="#000000" font-family="sans-serif" font-size="14" lengthAdjust="spacing" textLength="77" x="31.5" y="434.9951">Sales Staff</text></g><!--link Logistic to UC1--><g id="link_Logistic_UC1"><path d="M134.232,268.106 C165.717,277.122 197.9008,286.3373 229.3388,295.3393 " fill="none" id="Logistic-to-UC1" style="stroke:#181818;stroke-width:1.0;"/><polygon fill="#181818" points="235.107,296.991,227.5558,290.668,230.3002,295.6146,225.3536,298.359,235.107,296.991" style="stroke:#181818;stroke-width:1.0;"/></g><!--link Logistic to UC3--><g id="link_Logistic_UC3"><path d="M134.232,228.273 C170.308,215.876 209.2017,202.5129 242.7307,190.9909 " fill="none" id="Logistic-to-UC3" style="stroke:#181818;stroke-width:1.0;"/><polygon fill="#181818" points="248.405,189.041,238.5936,188.183,243.6764,190.6659,241.1935,195.7488,248.405,189.041" style="stroke:#181818;stroke-width:1.0;"/></g><!--link Salesperson to UC2--><g id="link_Salesperson_UC2"><path d="M108.739,400 C136.223,400 168.613,400 203.64,400 " fill="none" id="Salesperson-to-UC2" style="stroke:#181818;stroke-width:1.0;"/><polygon fill="#181818" points="209.64,400,200.64,396,204.64,400,200.64,404,209.64,400" style="stroke:#181818;stroke-width:1.0;"/></g><!--link UC1 to UC4--><g id="link_UC1_UC4"><path d="M362.771,332.98 C384.222,338.285 408.483,343.372 431,346 C493.171,353.256 560.6271,349.6803 600.8731,346.3803 " fill="none" id="UC1-to-UC4" style="stroke:#181818;stroke-width:1.0;stroke-dasharray:7.0,7.0;"/><polygon fill="#181818" points="606.853,345.89,597.5562,342.6389,601.8697,346.2986,598.21,350.6121,606.853,345.89" style="stroke:#181818;stroke-width:1.0;"/><text fill="#000000" font-family="sans-serif" font-size="13" lengthAdjust="spacing" textLength="61" x="432" y="342.0669">&#171;include&#187;</text></g><!--link UC1 to UC5--><g id="link_UC1_UC5"><path d="M354.351,334.35 C370.466,341.725 387.419,351.25 401,363 C419.178,378.727 412.195,393.029 431,408 C480.963,447.777 547.5467,467.5502 591.8767,477.3952 " fill="none" id="UC1-to-UC5" style="stroke:#181818;stroke-width:1.0;stroke-dasharray:7.0,7.0;"/><polygon fill="#181818" points="597.734,478.696,589.8153,472.8399,592.8529,477.612,588.0809,480.6496,597.734,478.696" style="stroke:#181818;stroke-width:1.0;"/><text fill="#000000" font-family="sans-serif" font-size="13" lengthAdjust="spacing" textLength="61" x="432" y="404.0669">&#171;include&#187;</text></g><!--link UC1 to UC6--><g id="link_UC1_UC6"><path d="M321.374,292.475 C345.604,268.375 387.429,230.933 431,211 C482.139,187.605 540.6066,178.7628 583.6696,175.0178 " fill="none" id="UC1-to-UC6" style="stroke:#181818;stroke-width:1.0;stroke-dasharray:7.0,7.0;"/><polygon fill="#181818" points="589.647,174.498,580.3343,171.2928,584.6658,174.9312,581.0274,179.2627,589.647,174.498" style="stroke:#181818;stroke-width:1.0;"/><text fill="#000000" font-family="sans-serif" font-size="13" lengthAdjust="spacing" textLength="61" x="432" y="187.0669">&#171;include&#187;</text></g><!--link UC2 to UC4--><g id="link_UC2_UC4"><path d="M378.567,390.925 C413.945,386.465 456.176,380.623 494,374 C534.536,366.902 575.1937,357.7524 603.8747,350.9774 " fill="none" id="UC2-to-UC4" style="stroke:#181818;stroke-width:1.0;stroke-dasharray:7.0,7.0;"/><polygon fill="#181818" points="609.714,349.598,600.0355,347.7742,604.8479,350.7475,601.8746,355.5599,609.714,349.598" style="stroke:#181818;stroke-width:1.0;"/><text fill="#000000" font-family="sans-serif" font-size="13" lengthAdjust="spacing" textLength="61" x="432" y="370.0669">&#171;include&#187;</text></g><!--link UC2 to UC5--><g id="link_UC2_UC5"><path d="M314.584,420.106 C336.275,448.093 380.003,497.5419 431,517 C492.668,540.5294 565.569,517.0748 605.524,500.3359 " fill="none" id="UC2-to-UC5" style="stroke:#181818;stroke-width:1.0;stroke-dasharray:7.0,7.0;"/><polygon fill="#181818" points="611.058,498.0175,601.2114,497.8058,606.4464,499.9495,604.3027,505.1845,611.058,498.0175" style="stroke:#181818;stroke-width:1.0;"/><text fill="#000000" font-family="sans-serif" font-size="13" lengthAdjust="spacing" textLength="61" x="432" y="513.0669">&#171;include&#187;</text></g><!--link UC2 to UC6--><g id="link_UC2_UC6"><path d="M348.527,383.354 C365.867,376.27 385.047,367.063 401,356 C416.755,345.074 415.574,336.387 431,325 C456.267,306.349 467.837,310.371 494,293 C544.936,259.181 593.8652,213.9472 618.5582,190.0872 " fill="none" id="UC2-to-UC6" style="stroke:#181818;stroke-width:1.0;stroke-dasharray:7.0,7.0;"/><polygon fill="#181818" points="622.873,185.918,613.6213,189.2953,619.2773,189.3924,619.1803,195.0484,622.873,185.918" style="stroke:#181818;stroke-width:1.0;"/><text fill="#000000" font-family="sans-serif" font-size="13" lengthAdjust="spacing" textLength="61" x="432" y="289.0669">&#171;include&#187;</text></g><!--link UC3 to UC4--><g id="link_UC3_UC4"><path d="M338.049,190.5 C377.26,209.643 440.094,240.531 494,268 C537.961,290.401 583.7687,314.6306 611.4167,329.3486 " fill="none" id="UC3-to-UC4" style="stroke:#181818;stroke-width:1.0;stroke-dasharray:7.0,7.0;"/><polygon fill="#181818" points="616.713,332.168,610.6481,324.408,612.2994,329.8185,606.8889,331.4698,616.713,332.168" style="stroke:#181818;stroke-width:1.0;"/><text fill="#000000" font-family="sans-serif" font-size="13" lengthAdjust="spacing" textLength="61" x="432" y="235.0669">&#171;include&#187;</text></g><!--link UC3 to UC6--><g id="link_UC3_UC6"><path d="M372.917,160.184 C391.783,157.621 412.105,155.292 431,154 C488.127,150.094 548.1081,157.1084 589.6791,163.6564 " fill="none" id="UC3-to-UC6" style="stroke:#181818;stroke-width:1.0;stroke-dasharray:7.0,7.0;"/><polygon fill="#181818" points="595.606,164.59,587.338,159.2384,590.6669,163.812,586.0932,167.1409,595.606,164.59" style="stroke:#181818;stroke-width:1.0;"/><text fill="#000000" font-family="sans-serif" font-size="13" lengthAdjust="spacing" textLength="61" x="432" y="149.0669">&#171;include&#187;</text></g><!--link UC3 to UC7--><g id="link_UC3_UC7"><path d="M349.643,154.913 C374.084,146.607 404.024,136.588 431,128 C476.732,113.442 522.7027,99.5798 562.8817,87.6878 " fill="none" id="UC3-to-UC7" style="stroke:#181818;stroke-width:1.0;stroke-dasharray:7.0,7.0;"/><polygon fill="#181818" points="568.635,85.985,558.8698,84.7037,563.8406,87.404,561.1403,92.3748,568.635,85.985" style="stroke:#181818;stroke-width:1.0;"/><text fill="#000000" font-family="sans-serif" font-size="13" lengthAdjust="spacing" textLength="61" x="432" y="105.0669">&#171;include&#187;</text></g><!--SRC=[TP3BQiCm44Nt-eh1-mHgvm4b64gwR4XfcWyOfB4hOaj66czI-k-rNJbLGxMSUyvSCMgeOc0BJjSV34exagoj4G8bMmVPYwsrPoqz7D1WJIu3z32ditN2XZoS6AjgujFSaVDZKuVoCcn2zjDmM_OPV0g0tfD4F-1zxzcsvC9BBHcUoixxXrWxElMVayVEQuC6tXqQtrd7E5uKj2BMdfGAyIgEdwaXfa3MCJbt2cza4vFXCNa1D0gE7UjMNmdURC_aWxmLNqBCbyDYKKvdtGM54D7FXJ0NOb1XkHo75Jp2RgUDR7f5PHcHTP9ixiY0ycHTdgpBqtL5igv8BFsIxL_o3G00]--></g></svg>