<?xml version="1.0" encoding="us-ascii" standalone="no"?><svg xmlns="http://www.w3.org/2000/svg" xmlns:xlink="http://www.w3.org/1999/xlink" contentStyleType="text/css" height="285px" preserveAspectRatio="none" style="width:1015px;height:285px;background:#FFFFFF;" version="1.1" viewBox="0 0 1015 285" width="1015px" zoomAndPan="magnify"><defs/><g><!--cluster Manage Warehouse--><g id="cluster_Manage Warehouse"><path d="M199.5,6 L357.5,6 A3.75,3.75 0 0 1 360,8.5 L367,28.2969 L1005.5,28.2969 A2.5,2.5 0 0 1 1008,30.7969 L1008,268.5 A2.5,2.5 0 0 1 1005.5,271 L199.5,271 A2.5,2.5 0 0 1 197,268.5 L197,8.5 A2.5,2.5 0 0 1 199.5,6 " fill="none" style="stroke:#000000;stroke-width:1.5;"/><line style="stroke:#000000;stroke-width:1.5;" x1="197" x2="367" y1="28.2969" y2="28.2969"/><text fill="#000000" font-family="sans-serif" font-size="14" font-weight="bold" lengthAdjust="spacing" textLength="157" x="201" y="20.9951">Manage Warehouse</text></g><g id="elem_UC1"><ellipse cx="329.9278" cy="63.9856" fill="#F1F1F1" rx="100.4278" ry="22.4856" style="stroke:#181818;stroke-width:0.5;"/><text fill="#000000" font-family="sans-serif" font-size="14" lengthAdjust="spacing" textLength="165" x="247.4278" y="66.8322">Manage Goods Receipt</text></g><g id="elem_UC2"><ellipse cx="330.1177" cy="145.1235" fill="#F1F1F1" rx="103.6177" ry="23.1235" style="stroke:#181818;stroke-width:0.5;"/><text fill="#000000" font-family="sans-serif" font-size="14" lengthAdjust="spacing" textLength="172" x="244.1177" y="147.9702">Manage Goods Dispatch</text></g><g id="elem_UC3"><ellipse cx="330.0271" cy="228.8054" fill="#F1F1F1" rx="117.0271" ry="25.8054" style="stroke:#181818;stroke-width:0.5;"/><text fill="#000000" font-family="sans-serif" font-size="14" lengthAdjust="spacing" textLength="201" x="229.5271" y="231.6521">Update Product Information</text></g><g id="elem_UC4"><ellipse cx="641.5529" cy="145.2106" fill="#F1F1F1" rx="71.5529" ry="16.7106" style="stroke:#181818;stroke-width:0.5;"/><text fill="#000000" font-family="sans-serif" font-size="14" lengthAdjust="spacing" textLength="97" x="590.0529" y="148.9581">Check Orders</text></g><g id="elem_UC5"><ellipse cx="914.1551" cy="145.031" fill="#F1F1F1" rx="78.1551" ry="18.031" style="stroke:#181818;stroke-width:0.5;"/><text fill="#000000" font-family="sans-serif" font-size="14" lengthAdjust="spacing" textLength="114" x="854.7659" y="148.6166">Approve Orders</text></g><!--entity Manager--><g id="elem_Manager"><ellipse cx="78" cy="101.5" fill="#F1F1F1" rx="8" ry="8" style="stroke:#181818;stroke-width:0.5;"/><path d="M78,109.5 L78,136.5 M65,117.5 L91,117.5 M78,136.5 L65,151.5 M78,136.5 L91,151.5 " fill="none" style="stroke:#181818;stroke-width:0.5;"/><text fill="#000000" font-family="sans-serif" font-size="14" lengthAdjust="spacing" textLength="144" x="6" y="165.9951">Warehouse Manager</text></g><!--entity Staff--><g id="elem_Staff"><ellipse cx="78" cy="212.5" fill="#F1F1F1" rx="8" ry="8" style="stroke:#181818;stroke-width:0.5;"/><path d="M78,220.5 L78,247.5 M65,228.5 L91,228.5 M78,247.5 L65,262.5 M78,247.5 L91,262.5 " fill="none" style="stroke:#181818;stroke-width:0.5;"/><text fill="#000000" font-family="sans-serif" font-size="14" lengthAdjust="spacing" textLength="119" x="18.5" y="276.9951">Warehouse Staff</text></g><!--link Manager to UC1--><g id="link_Manager_UC1"><path d="M150.305,111.89 C186.386,102.221 224.0405,92.1291 259.0605,82.7441 " fill="none" id="Manager-to-UC1" style="stroke:#181818;stroke-width:1.0;"/><polygon fill="#181818" points="264.856,81.191,255.1273,79.657,260.0264,82.4853,257.1982,87.3844,264.856,81.191" style="stroke:#181818;stroke-width:1.0;"/></g><!--link Manager to UC2--><g id="link_Manager_UC2"><path d="M150.305,134.993 C174.84,136.367 196.7924,137.5966 223.1744,139.0736 " fill="none" id="Manager-to-UC2" style="stroke:#181818;stroke-width:1.0;"/><polygon fill="#181818" points="229.165,139.409,220.4027,134.9122,224.1728,139.1295,219.9555,142.8997,229.165,139.409" style="stroke:#181818;stroke-width:1.0;"/></g><!--link Manager to UC3--><g id="link_Manager_UC3"><path d="M150.108,168.692 C162.89,174.851 176.215,180.881 189,186 C210.244,194.5055 228.1132,200.6005 249.8012,207.1913 " fill="none" id="Manager-to-UC3" style="stroke:#181818;stroke-width:1.0;"/><polygon fill="#181818" points="255.542,208.9359,248.0939,202.4919,250.758,207.4821,245.7678,210.1462,255.542,208.9359" style="stroke:#181818;stroke-width:1.0;"/></g><!--link Staff to UC3--><g id="link_Staff_UC3"><path d="M137.614,238.9521 C161.066,237.7326 182.9181,236.5963 210.0041,235.1878 " fill="none" id="Staff-to-UC3" style="stroke:#181818;stroke-width:1.0;"/><polygon fill="#181818" points="215.996,234.8762,206.8004,231.349,211.0027,235.1359,207.2159,239.3382,215.996,234.8762" style="stroke:#181818;stroke-width:1.0;"/></g><!--link UC1 to UC4--><g id="link_UC1_UC4"><path d="M396.259,81.079 C455.317,96.535 535.0645,117.4058 587.6665,131.1728 " fill="none" id="UC1-to-UC4" style="stroke:#181818;stroke-width:1.0;stroke-dasharray:7.0,7.0;"/><polygon fill="#181818" points="593.471,132.692,585.777,126.5436,588.6339,131.426,583.7515,134.2829,593.471,132.692" style="stroke:#181818;stroke-width:1.0;"/><text fill="#000000" font-family="sans-serif" font-size="13" lengthAdjust="spacing" textLength="61" x="478" y="101.0669">&#171;include&#187;</text></g><!--link UC1 to UC5--><g id="link_UC1_UC5"><path d="M427.123,69.886 C462.646,72.448 503.208,75.831 540,80 C658.791,93.461 688.586,97.493 806,120 C823.799,123.412 837.2844,126.3515 854.5494,130.4395 " fill="none" id="UC1-to-UC5" style="stroke:#181818;stroke-width:1.0;stroke-dasharray:7.0,7.0;"/><polygon fill="#181818" points="860.388,131.822,852.5518,125.8559,855.5225,130.67,850.7085,133.6407,860.388,131.822" style="stroke:#181818;stroke-width:1.0;"/><text fill="#000000" font-family="sans-serif" font-size="13" lengthAdjust="spacing" textLength="61" x="611" y="80.0669">&#171;include&#187;</text></g><!--link UC2 to UC4--><g id="link_UC2_UC4"><path d="M433.629,145 C478.324,145 523.585,145 563.899,145 " fill="none" id="UC2-to-UC4" style="stroke:#181818;stroke-width:1.0;stroke-dasharray:7.0,7.0;"/><polygon fill="#181818" points="569.899,145,560.899,141,564.899,145,560.899,149,569.899,145" style="stroke:#181818;stroke-width:1.0;"/><text fill="#000000" font-family="sans-serif" font-size="13" lengthAdjust="spacing" textLength="61" x="478" y="141.0669">&#171;include&#187;</text></g><!--link UC2 to UC5--><g id="link_UC2_UC5"><path d="M396.088,162.765 C443.811,174.837 510.402,189.712 570,196 C633.205,202.6685 649.939,203.9137 713,196 C767.576,189.1511 822.8812,173.9625 863.0062,161.4705 " fill="none" id="UC2-to-UC5" style="stroke:#181818;stroke-width:1.0;stroke-dasharray:7.0,7.0;"/><polygon fill="#181818" points="868.735,159.687,858.9528,158.5431,863.961,161.1733,861.3308,166.1815,868.735,159.687" style="stroke:#181818;stroke-width:1.0;"/><text fill="#000000" font-family="sans-serif" font-size="13" lengthAdjust="spacing" textLength="61" x="611" y="192.0669">&#171;include&#187;</text></g><!--link UC4 to UC5--><g id="link_UC4_UC5"><path d="M713.217,145 C750.786,145 791.032,145 829.565,145 " fill="none" id="UC4-to-UC5" style="stroke:#181818;stroke-width:1.0;stroke-dasharray:7.0,7.0;"/><polygon fill="#181818" points="835.565,145,826.565,141,830.565,145,826.565,149,835.565,145" style="stroke:#181818;stroke-width:1.0;"/><text fill="#000000" font-family="sans-serif" font-size="13" lengthAdjust="spacing" textLength="61" x="744" y="141.0669">&#171;extend&#187;</text></g><!--SRC=[TP31IiD048RlynH3xYsOfXSf0QaW7aHHYkTXTz8ihRlBx4G4yTrDrsYJIcxpytt_iZD7RXGreBXzgsYTi54NF00P3OB5AmcteKkC3-Hfpr8WfT_vl_IYr3HPoHD097FeLIn-AlYd5lW9YFrWA9tnNGWsuJCRTb7pExljrQntwr8aDUqWbcDn5oqfuvC4snd5Uzy4UQFJReEz6jlRbiq17yMof85NOtuJeuHtdXfh-08OJe6BHPt_EitbHLu1vCESOz_1vV8KAhp6pSPvS-mir_M8h2z8ZyhPKZbVgYQ8FvIzhUjl]--></g></svg>