<?xml version="1.0" encoding="us-ascii" standalone="no"?><svg xmlns="http://www.w3.org/2000/svg" xmlns:xlink="http://www.w3.org/1999/xlink" contentStyleType="text/css" height="498px" preserveAspectRatio="none" style="width:572px;height:498px;background:#FFFFFF;" version="1.1" viewBox="0 0 572 498" width="572px" zoomAndPan="magnify"><defs/><g><!--cluster Reporting and Analysis--><g id="cluster_Reporting and Analysis"><path d="M196.5,6 L385.5,6 A3.75,3.75 0 0 1 388,8.5 L395,28.2969 L562.5,28.2969 A2.5,2.5 0 0 1 565,30.7969 L565,478.5 A2.5,2.5 0 0 1 562.5,481 L196.5,481 A2.5,2.5 0 0 1 194,478.5 L194,8.5 A2.5,2.5 0 0 1 196.5,6 " fill="none" style="stroke:#000000;stroke-width:1.5;"/><line style="stroke:#000000;stroke-width:1.5;" x1="194" x2="395" y1="28.2969" y2="28.2969"/><text fill="#000000" font-family="sans-serif" font-size="14" font-weight="bold" lengthAdjust="spacing" textLength="188" x="198" y="20.9951">Reporting and Analysis</text></g><g id="elem_UC1"><ellipse cx="379.3991" cy="165.0798" fill="#F1F1F1" rx="135.8991" ry="29.5798" style="stroke:#181818;stroke-width:0.5;"/><text fill="#000000" font-family="sans-serif" font-size="14" lengthAdjust="spacing" textLength="241" x="258.8991" y="167.9265">Create Inventory On Hand Report</text></g><g id="elem_UC2"><ellipse cx="379.4721" cy="70.7944" fill="#F1F1F1" rx="134.4721" ry="29.2944" style="stroke:#181818;stroke-width:0.5;"/><text fill="#000000" font-family="sans-serif" font-size="14" lengthAdjust="spacing" textLength="238" x="260.4721" y="73.6411">Create Best Selling Items Report</text></g><g id="elem_UC3"><ellipse cx="379.5598" cy="343.812" fill="#F1F1F1" rx="169.5598" ry="36.312" style="stroke:#181818;stroke-width:0.5;"/><text fill="#000000" font-family="sans-serif" font-size="14" lengthAdjust="spacing" textLength="311" x="224.0598" y="346.6586">Create Incident and Repair Request Report</text></g><g id="elem_UC4"><ellipse cx="379.5118" cy="250.9024" fill="#F1F1F1" rx="95.0118" ry="21.4024" style="stroke:#181818;stroke-width:0.5;"/><text fill="#000000" font-family="sans-serif" font-size="14" lengthAdjust="spacing" textLength="153" x="303.0118" y="253.749">Analyze Performance</text></g><g id="elem_UC5"><ellipse cx="379.5183" cy="440.0037" fill="#F1F1F1" rx="110.5183" ry="24.5037" style="stroke:#181818;stroke-width:0.5;"/><text fill="#000000" font-family="sans-serif" font-size="14" lengthAdjust="spacing" textLength="187" x="286.0183" y="442.8503">View Reports and Analysis</text></g><!--entity Manager--><g id="elem_Manager"><ellipse cx="78" cy="67.5" fill="#F1F1F1" rx="8" ry="8" style="stroke:#181818;stroke-width:0.5;"/><path d="M78,75.5 L78,102.5 M65,83.5 L91,83.5 M78,102.5 L65,117.5 M78,102.5 L91,117.5 " fill="none" style="stroke:#181818;stroke-width:0.5;"/><text fill="#000000" font-family="sans-serif" font-size="14" lengthAdjust="spacing" textLength="144" x="6" y="131.9951">Warehouse Manager</text></g><!--entity Logistic--><g id="elem_Logistic"><ellipse cx="78" cy="203.5" fill="#F1F1F1" rx="8" ry="8" style="stroke:#181818;stroke-width:0.5;"/><path d="M78,211.5 L78,238.5 M65,219.5 L91,219.5 M78,238.5 L65,253.5 M78,238.5 L91,253.5 " fill="none" style="stroke:#181818;stroke-width:0.5;"/><text fill="#000000" font-family="sans-serif" font-size="14" lengthAdjust="spacing" textLength="128" x="14" y="267.9951">Logistics Manager</text></g><!--entity Fleet--><g id="elem_Fleet"><ellipse cx="78" cy="314.5" fill="#F1F1F1" rx="8" ry="8" style="stroke:#181818;stroke-width:0.5;"/><path d="M78,322.5 L78,349.5 M65,330.5 L91,330.5 M78,349.5 L65,364.5 M78,349.5 L91,364.5 " fill="none" style="stroke:#181818;stroke-width:0.5;"/><text fill="#000000" font-family="sans-serif" font-size="14" lengthAdjust="spacing" textLength="102" x="27" y="378.9951">Fleet Manager</text></g><!--entity Admin--><g id="elem_Admin"><ellipse cx="78" cy="425.5" fill="#F1F1F1" rx="8" ry="8" style="stroke:#181818;stroke-width:0.5;"/><path d="M78,433.5 L78,460.5 M65,441.5 L91,441.5 M78,460.5 L65,475.5 M78,460.5 L91,475.5 " fill="none" style="stroke:#181818;stroke-width:0.5;"/><text fill="#000000" font-family="sans-serif" font-size="14" lengthAdjust="spacing" textLength="46" x="55" y="489.9951">Admin</text></g><!--link Manager to UC1--><g id="link_Manager_UC1"><path d="M150.357,113.201 C190.671,122.354 235.6889,132.5756 279.1579,142.4446 " fill="none" id="Manager-to-UC1" style="stroke:#181818;stroke-width:1.0;"/><polygon fill="#181818" points="285.009,143.773,277.118,137.8797,280.1331,142.666,275.3468,145.6811,285.009,143.773" style="stroke:#181818;stroke-width:1.0;"/></g><!--link Manager to UC2--><g id="link_Manager_UC2"><path d="M150.357,90.805 C181.414,88.109 212.7585,85.3879 248.1355,82.3169 " fill="none" id="Manager-to-UC2" style="stroke:#181818;stroke-width:1.0;"/><polygon fill="#181818" points="254.113,81.798,244.8008,78.5913,249.1317,82.2304,245.4927,86.5614,254.113,81.798" style="stroke:#181818;stroke-width:1.0;"/></g><!--link Logistic to UC4--><g id="link_Logistic_UC4"><path d="M142.15,236.795 C184.369,239.333 234.5908,242.3511 281.6008,245.1761 " fill="none" id="Logistic-to-UC4" style="stroke:#181818;stroke-width:1.0;"/><polygon fill="#181818" points="287.59,245.536,278.8461,241.0033,282.599,245.2361,278.3663,248.9889,287.59,245.536" style="stroke:#181818;stroke-width:1.0;"/></g><!--link Fleet to UC3--><g id="link_Fleet_UC3"><path d="M129.13,344 C151.943,344 174.403,344 203.853,344 " fill="none" id="Fleet-to-UC3" style="stroke:#181818;stroke-width:1.0;"/><polygon fill="#181818" points="209.853,344,200.853,340,204.853,344,200.853,348,209.853,344" style="stroke:#181818;stroke-width:1.0;"/></g><!--link Admin to UC5--><g id="link_Admin_UC5"><path d="M101.023,453.897 C136.687,452.1109 203.3525,448.772 265.3725,445.6658 " fill="none" id="Admin-to-UC5" style="stroke:#181818;stroke-width:1.0;"/><polygon fill="#181818" points="271.365,445.3657,262.1762,441.8209,266.3713,445.6158,262.5764,449.8109,271.365,445.3657" style="stroke:#181818;stroke-width:1.0;"/></g><!--SRC=[RP3BJWCn34Nt-Geh-oxeOujKAY4gWOf0mDhAk5EhcQHDN511_3kPJ4PgK5U9xNDzRLlQ2eY7mErEeE50HjWxfT283w0_CD3EdoB14pfiAMZ0EFv7wD6t78LDhA0nErBtbaWg8cTAUTbqd6mFQFQf3lg53Zu8knRGDR1qQC-HeuOV1P36CPX6qgj0A0HhzqakDJd3ni53pm_gRFAskhaYkQCey4hMzWvheIxMckbL6yDDCeBYW1pISpprhIhnx5ASH_ycUAQmzQ53PwXWyqlidUchT8d_LixmGlqgLOu7aybjtgkEfseyUKdCrN3p8PgfVECIBVu0]--></g></svg>