<?xml version="1.0" encoding="us-ascii" standalone="no"?><svg xmlns="http://www.w3.org/2000/svg" xmlns:xlink="http://www.w3.org/1999/xlink" contentStyleType="text/css" height="863px" preserveAspectRatio="none" style="width:788px;height:863px;background:#FFFFFF;" version="1.1" viewBox="0 0 788 863" width="788px" zoomAndPan="magnify"><defs/><g><!--cluster Warehouse, Logistics, and Vehicle Management System--><g id="cluster_Warehouse, Logistics, and Vehicle Management System"><path d="M316.5,127.5 L768.5,127.5 A3.75,3.75 0 0 1 771,130 L778,149.7969 L778.5,149.7969 A2.5,2.5 0 0 1 781,152.2969 L781,520 A2.5,2.5 0 0 1 778.5,522.5 L316.5,522.5 A2.5,2.5 0 0 1 314,520 L314,130 A2.5,2.5 0 0 1 316.5,127.5 " fill="none" style="stroke:#000000;stroke-width:1.5;"/><line style="stroke:#000000;stroke-width:1.5;" x1="314" x2="778" y1="149.7969" y2="149.7969"/><text fill="#000000" font-family="sans-serif" font-size="14" font-weight="bold" lengthAdjust="spacing" textLength="451" x="318" y="142.4951">Warehouse, Logistics, and Vehicle Management System</text></g><g id="elem_UC1"><ellipse cx="546.8518" cy="182.5704" fill="#F1F1F1" rx="88.3518" ry="20.0704" style="stroke:#181818;stroke-width:0.5;"/><text fill="#000000" font-family="sans-serif" font-size="14" lengthAdjust="spacing" textLength="138" x="477.8518" y="185.417">Manage Warehouse</text></g><g id="elem_UC2"><ellipse cx="546.9455" cy="415.6891" fill="#F1F1F1" rx="81.4455" ry="18.6891" style="stroke:#181818;stroke-width:0.5;"/><text fill="#000000" font-family="sans-serif" font-size="14" lengthAdjust="spacing" textLength="122" x="484.8109" y="418.909">Manage Logistics</text></g><g id="elem_UC3"><ellipse cx="547.1963" cy="487.4393" fill="#F1F1F1" rx="80.1963" ry="18.4393" style="stroke:#181818;stroke-width:0.5;"/><text fill="#000000" font-family="sans-serif" font-size="14" lengthAdjust="spacing" textLength="119" x="486.1039" y="490.7979">Manage Vehicles</text></g><g id="elem_UC4"><ellipse cx="546.9738" cy="339.3948" fill="#F1F1F1" rx="99.9738" ry="22.3948" style="stroke:#181818;stroke-width:0.5;"/><text fill="#000000" font-family="sans-serif" font-size="14" lengthAdjust="spacing" textLength="164" x="464.9738" y="342.2414">Reporting and Analysis</text></g><g id="elem_UC5"><ellipse cx="546.8093" cy="259.2619" fill="#F1F1F1" rx="96.8093" ry="21.7619" style="stroke:#181818;stroke-width:0.5;"/><text fill="#000000" font-family="sans-serif" font-size="14" lengthAdjust="spacing" textLength="157" x="468.3093" y="262.1085">Account Management</text></g><!--entity Manager--><g id="elem_Manager"><ellipse cx="78" cy="125" fill="#F1F1F1" rx="8" ry="8" style="stroke:#181818;stroke-width:0.5;"/><path d="M78,133 L78,160 M65,141 L91,141 M78,160 L65,175 M78,160 L91,175 " fill="none" style="stroke:#181818;stroke-width:0.5;"/><text fill="#000000" font-family="sans-serif" font-size="14" lengthAdjust="spacing" textLength="144" x="6" y="189.4951">Warehouse Manager</text></g><!--entity Staff--><g id="elem_Staff"><ellipse cx="78" cy="14" fill="#F1F1F1" rx="8" ry="8" style="stroke:#181818;stroke-width:0.5;"/><path d="M78,22 L78,49 M65,30 L91,30 M78,49 L65,64 M78,49 L91,64 " fill="none" style="stroke:#181818;stroke-width:0.5;"/><text fill="#000000" font-family="sans-serif" font-size="14" lengthAdjust="spacing" textLength="119" x="18.5" y="78.4951">Warehouse Staff</text></g><!--entity Logistic--><g id="elem_Logistic"><ellipse cx="78" cy="347" fill="#F1F1F1" rx="8" ry="8" style="stroke:#181818;stroke-width:0.5;"/><path d="M78,355 L78,382 M65,363 L91,363 M78,382 L65,397 M78,382 L91,397 " fill="none" style="stroke:#181818;stroke-width:0.5;"/><text fill="#000000" font-family="sans-serif" font-size="14" lengthAdjust="spacing" textLength="128" x="14" y="411.4951">Logistics Manager</text></g><!--entity Fleet--><g id="elem_Fleet"><ellipse cx="78" cy="458" fill="#F1F1F1" rx="8" ry="8" style="stroke:#181818;stroke-width:0.5;"/><path d="M78,466 L78,493 M65,474 L91,474 M78,493 L65,508 M78,493 L91,508 " fill="none" style="stroke:#181818;stroke-width:0.5;"/><text fill="#000000" font-family="sans-serif" font-size="14" lengthAdjust="spacing" textLength="118" x="19" y="522.4951">Vehicle Manager</text></g><!--entity Driver--><g id="elem_Driver"><ellipse cx="78" cy="680" fill="#F1F1F1" rx="8" ry="8" style="stroke:#181818;stroke-width:0.5;"/><path d="M78,688 L78,715 M65,696 L91,696 M78,715 L65,730 M78,715 L91,730 " fill="none" style="stroke:#181818;stroke-width:0.5;"/><text fill="#000000" font-family="sans-serif" font-size="14" lengthAdjust="spacing" textLength="44" x="56" y="744.4951">Driver</text></g><!--entity Salesperson--><g id="elem_Salesperson"><ellipse cx="78" cy="569" fill="#F1F1F1" rx="8" ry="8" style="stroke:#181818;stroke-width:0.5;"/><path d="M78,577 L78,604 M65,585 L91,585 M78,604 L65,619 M78,604 L91,619 " fill="none" style="stroke:#181818;stroke-width:0.5;"/><text fill="#000000" font-family="sans-serif" font-size="14" lengthAdjust="spacing" textLength="77" x="39.5" y="633.4951">Sales Staff</text></g><!--entity Maintenance--><g id="elem_Maintenance"><ellipse cx="78" cy="791" fill="#F1F1F1" rx="8" ry="8" style="stroke:#181818;stroke-width:0.5;"/><path d="M78,799 L78,826 M65,807 L91,807 M78,826 L65,841 M78,826 L91,841 " fill="none" style="stroke:#181818;stroke-width:0.5;"/><text fill="#000000" font-family="sans-serif" font-size="14" lengthAdjust="spacing" textLength="132" x="12" y="855.4951">Maintenance Staff</text></g><!--entity Admin--><g id="elem_Admin"><ellipse cx="78" cy="236" fill="#F1F1F1" rx="8" ry="8" style="stroke:#181818;stroke-width:0.5;"/><path d="M78,244 L78,271 M65,252 L91,252 M78,271 L65,286 M78,271 L91,286 " fill="none" style="stroke:#181818;stroke-width:0.5;"/><text fill="#000000" font-family="sans-serif" font-size="14" lengthAdjust="spacing" textLength="46" x="55" y="300.4951">Admin</text></g><!--link Manager to UC1--><g id="link_Manager_UC1"><path d="M150.181,158.768 C233.676,163.774 365.9848,171.7069 455.0268,177.0459 " fill="none" id="Manager-to-UC1" style="stroke:#181818;stroke-width:1.0;"/><polygon fill="#181818" points="461.016,177.405,452.2715,172.8735,456.025,177.1057,451.7927,180.8592,461.016,177.405" style="stroke:#181818;stroke-width:1.0;"/></g><!--link Manager to UC4--><g id="link_Manager_UC4"><path d="M125.95,192.588 C169.839,226.14 238.556,273.59 306,299.5 C352.234,317.262 400.5058,326.421 445.7058,331.915 " fill="none" id="Manager-to-UC4" style="stroke:#181818;stroke-width:1.0;"/><polygon fill="#181818" points="451.662,332.639,443.2104,327.5823,446.6985,332.0357,442.2451,335.5238,451.662,332.639" style="stroke:#181818;stroke-width:1.0;"/></g><!--link Staff to UC1--><g id="link_Staff_UC1"><path d="M137.673,60.964 C229.171,88.197 398.7193,138.6623 486.8633,164.8983 " fill="none" id="Staff-to-UC1" style="stroke:#181818;stroke-width:1.0;"/><polygon fill="#181818" points="492.614,166.61,485.1291,160.2087,487.8218,165.1836,482.8469,167.8763,492.614,166.61" style="stroke:#181818;stroke-width:1.0;"/></g><!--link Logistic to UC2--><g id="link_Logistic_UC2"><path d="M142.468,381.8 C227.758,388.923 373.1758,401.0667 464.3098,408.6777 " fill="none" id="Logistic-to-UC2" style="stroke:#181818;stroke-width:1.0;"/><polygon fill="#181818" points="470.289,409.177,461.6531,404.4419,465.3063,408.7609,460.9873,412.4141,470.289,409.177" style="stroke:#181818;stroke-width:1.0;"/></g><!--link Logistic to UC4--><g id="link_Logistic_UC4"><path d="M142.468,371.472 C222.396,365.139 354.3997,354.6799 446.4367,347.3879 " fill="none" id="Logistic-to-UC4" style="stroke:#181818;stroke-width:1.0;"/><polygon fill="#181818" points="452.418,346.914,443.1302,343.6373,447.4336,347.3089,443.762,351.6123,452.418,346.914" style="stroke:#181818;stroke-width:1.0;"/></g><!--link Fleet to UC3--><g id="link_Fleet_UC3"><path d="M137.202,487.5 C220.334,487.5 367.328,487.5 460.739,487.5 " fill="none" id="Fleet-to-UC3" style="stroke:#181818;stroke-width:1.0;"/><polygon fill="#181818" points="466.739,487.5,457.739,483.5,461.739,487.5,457.739,491.5,466.739,487.5" style="stroke:#181818;stroke-width:1.0;"/></g><!--link Fleet to UC4--><g id="link_Fleet_UC4"><path d="M137.371,454.143 C182.164,429.944 246.256,398.283 306,379.5 C354.255,364.329 403.9324,355.3894 449.4744,349.3294 " fill="none" id="Fleet-to-UC4" style="stroke:#181818;stroke-width:1.0;"/><polygon fill="#181818" points="455.422,348.538,445.973,345.7601,450.4657,349.1975,447.0282,353.6902,455.422,348.538" style="stroke:#181818;stroke-width:1.0;"/></g><!--link Driver to UC3--><g id="link_Driver_UC3"><path d="M100.2795,699.384 C174.063,664.31 413.9691,550.264 505.6311,506.69 " fill="none" id="Driver-to-UC3" style="stroke:#181818;stroke-width:1.0;"/><polygon fill="#181818" points="511.05,504.114,501.2044,504.3654,506.5343,506.2607,504.639,511.5906,511.05,504.114" style="stroke:#181818;stroke-width:1.0;"/></g><!--link Salesperson to UC2--><g id="link_Salesperson_UC2"><path d="M116.691,571.28 C170.309,533.055 266.479,466.456 306,451.5 C357.523,432.002 413.044,423.5438 460.888,419.4318 " fill="none" id="Salesperson-to-UC2" style="stroke:#181818;stroke-width:1.0;"/><polygon fill="#181818" points="466.866,418.918,457.5565,415.7034,461.8844,419.3462,458.2416,423.674,466.866,418.918" style="stroke:#181818;stroke-width:1.0;"/></g><!--link Maintenance to UC3--><g id="link_Maintenance_UC3"><path d="M132.571,782.3007 C233.554,710.293 443.5778,560.5335 516.3958,508.6095 " fill="none" id="Maintenance-to-UC3" style="stroke:#181818;stroke-width:1.0;"/><polygon fill="#181818" points="521.281,505.126,511.6309,507.0944,517.21,508.0289,516.2755,513.608,521.281,505.126" style="stroke:#181818;stroke-width:1.0;"/></g><!--link Admin to UC1--><g id="link_Admin_UC1"><path d="M101.1787,260.807 C141.742,252.29 230.651,233.929 306,220.5 C361.756,210.563 419.1041,201.4995 466.6831,194.2685 " fill="none" id="Admin-to-UC1" style="stroke:#181818;stroke-width:1.0;"/><polygon fill="#181818" points="472.615,193.367,463.1162,190.7647,467.6718,194.1183,464.3182,198.6739,472.615,193.367" style="stroke:#181818;stroke-width:1.0;"/></g><!--link Admin to UC2--><g id="link_Admin_UC2"><path d="M101.1815,279.66 C140.685,304.173 226.551,354.3 306,379.5 C359.012,396.315 415.1943,404.7589 462.9663,409.5769 " fill="none" id="Admin-to-UC2" style="stroke:#181818;stroke-width:1.0;"/><polygon fill="#181818" points="468.936,410.179,460.3828,405.2961,463.9612,409.6773,459.58,413.2557,468.936,410.179" style="stroke:#181818;stroke-width:1.0;"/></g><!--link Admin to UC3--><g id="link_Admin_UC3"><path d="M101.1887,282.753 C115.251,293.749 133.781,308.35 150,321.5 C220.104,378.34 223.659,414.549 306,451.5 C356.644,474.227 412.7416,482.6927 461.0756,485.9487 " fill="none" id="Admin-to-UC3" style="stroke:#181818;stroke-width:1.0;"/><polygon fill="#181818" points="467.062,486.352,458.3512,481.7561,462.0733,486.0159,457.8135,489.738,467.062,486.352" style="stroke:#181818;stroke-width:1.0;"/></g><!--link Admin to UC4--><g id="link_Admin_UC4"><path d="M101.2102,269.019 C165.65,279.23 349.1119,308.302 458.8699,325.694 " fill="none" id="Admin-to-UC4" style="stroke:#181818;stroke-width:1.0;"/><polygon fill="#181818" points="464.796,326.633,456.5329,321.2737,459.8576,325.8505,455.2809,329.1752,464.796,326.633" style="stroke:#181818;stroke-width:1.0;"/></g><!--link Admin to UC5--><g id="link_Admin_UC5"><path d="M101.2102,265.215 C162.84,264.423 332.7615,262.2401 444.0025,260.8101 " fill="none" id="Admin-to-UC5" style="stroke:#181818;stroke-width:1.0;"/><polygon fill="#181818" points="450.002,260.733,440.9513,256.849,445.0024,260.7973,441.0542,264.8484,450.002,260.733" style="stroke:#181818;stroke-width:1.0;"/></g><!--SRC=[RP4zJmCn38Pt_mhhvbQYNn8JKaN5H1TEm6obxZNgNN9AKgGAyTy9kIGaqCsl_SH-7VTyTEWq6jcT71waOU6aLc3FKeraQ413wcnvnCNz7G09fmqsxsJuf2-MSK-AEZODaatnVwXrT3m694G9UDQTj4uAMtL9sKIzyKcAlfxqr3Ex1EoC_8ZvAKo5bdgsvV0VFRAnVh-8x4agnugKA5qMsGXk3uDK032IE7iNnNApRDZEaDG1Qxy3AuVjrJeU6lm4HFz4aF-JPgfZRXGclpukRZ1vGcIMDvWuDY6h4ddXKHidLHSCRXNrLoiJkIx9hH3wuXt_ce_K1hxy-X2FWFFvG_1QwpL0-CHSXkGyPfP_4_v5k6MKgqhvudJGN8NYXBabb4VCPBXODbAgPQLMbLfNQlCD]--></g></svg>